<svg xmlns="http://www.w3.org/2000/svg"
  xmlns:xlink="http://www.w3.org/1999/xlink">
  <symbol xmlns="http://www.w3.org/2000/svg" id="theme" viewBox="0 0 24 24" fill="none" stroke="currentColor" stroke-width="2" stroke-linecap="round" stroke-linejoin="round" class="lucide lucide-palette">
    <circle cx="13.5" cy="6.5" r=".5" />
    <circle cx="17.5" cy="10.5" r=".5" />
    <circle cx="8.5" cy="7.5" r=".5" />
    <circle cx="6.5" cy="12.5" r=".5" />
    <path d="M12 2C6.5 2 2 6.5 2 12s4.5 10 10 10c.926 0 1.648-.746 1.648-1.688 0-.437-.18-.835-.437-1.125-.29-.289-.438-.652-.438-1.125a1.64 1.64 0 0 1 1.668-1.668h1.996c3.051 0 5.555-2.503 5.555-5.554C21.965 6.012 17.461 2 12 2z"/>
  </symbol>
  <symbol xmlns="http://www.w3.org/2000/svg" id="menu" viewBox="0 0 24 24">
    <path fill="none" d="M0 0h24v24H0V0z"/>
    <path d="M3 18h18v-2H3v2zm0-5h18v-2H3v2zm0-7v2h18V6H3z"/>
  </symbol>
  <symbol xmlns="http://www.w3.org/2000/svg" id="toc" viewBox="0 0 24 24">
    <path d="M3 9h14V7H3v2zm0 4h14v-2H3v2zm0 4h14v-2H3v2zm16 0h2v-2h-2v2zm0-10v2h2V7h-2zm0 6h2v-2h-2v2z"/>
    <path d="M0 0h24v24H0z" fill="none"/>
  </symbol>
  <symbol xmlns="http://www.w3.org/2000/svg" id="translate" viewBox="0 0 24 24">
    <path d="M0 0h24v24H0z" fill="none"/>
    <path d="M12.87 15.07l-2.54-2.51.03-.03c1.74-1.94 2.98-4.17 3.71-6.53H17V4h-7V2H8v2H1v1.99h11.17C11.5 7.92 10.44 9.75 9 11.35 8.07 10.32 7.3 9.19 6.69 8h-2c.73 1.63 1.73 3.17 2.98 4.56l-5.09 5.02L4 19l5-5 3.11 3.11.76-2.04zM18.5 10h-2L12 22h2l1.12-3h4.75L21 22h2l-4.5-12zm-2.62 7l1.62-4.33L19.12 17h-3.24z"/>
  </symbol>
  <symbol xmlns="http://www.w3.org/2000/svg" id="forward" viewBox="0 0 24 24">
    <path d="M0 0h24v24H0z" fill="none"/>
    <path d="M12 4l-1.41 1.41L16.17 11H4v2h12.17l-5.58 5.59L12 20l8-8z"/>
  </symbol>
  <symbol xmlns="http://www.w3.org/2000/svg" id="edit" viewBox="0 0 24 24">
    <path d="M3 17.25V21h3.75L17.81 9.94l-3.75-3.75L3 17.25zM20.71 7.04c.39-.39.39-1.02 0-1.41l-2.34-2.34c-.39-.39-1.02-.39-1.41 0l-1.83 1.83 3.75 3.75 1.83-1.83z"/>
    <path d="M0 0h24v24H0z" fill="none"/>
  </symbol>
  <symbol xmlns="http://www.w3.org/2000/svg" id="backward" viewBox="0 0 24 24">
    <path d="M0 0h24v24H0z" fill="none"/>
    <path d="M20 11H7.83l5.59-5.59L12 4l-8 8 8 8 1.41-1.41L7.83 13H20v-2z"/>
  </symbol>
  <symbol xmlns="http://www.w3.org/2000/svg" id="calendar" viewBox="0 0 24 24">
    <path d="M20 3h-1V1h-2v2H7V1H5v2H4c-1.1 0-2 .9-2 2v16c0 1.1.9 2 2 2h16c1.1 0 2-.9 2-2V5c0-1.1-.9-2-2-2zm0 18H4V8h16v13z"/>
    <path fill="none" d="M0 0h24v24H0z"/>
  </symbol>
  <symbol xmlns="http://www.w3.org/2000/svg" id="comment" stroke-width="2" stroke-linecap="round" stroke-linejoin="round" class="lucide lucide-message-square-quote" viewBox="0 0 24 24">
    <path d="M21 15a2 2 0 0 1-2 2H7l-4 4V5a2 2 0 0 1 2-2h14a2 2 0 0 1 2 2z"/>
    <path d="M8 12a2 2 0 0 0 2-2V8H8"/>
    <path d="M14 12a2 2 0 0 0 2-2V8h-2"/>
  </symbol>
  <symbol id="check" fill="rgb(29, 155, 240)" viewBox="0 0 24 24" stroke-width="2" stroke-linecap="round" stroke-linejoin="round" class="lucide lucide-badge-check">
    <path d="M3.85 8.62a4 4 0 0 1 4.78-4.77 4 4 0 0 1 6.74 0 4 4 0 0 1 4.78 4.78 4 4 0 0 1 0 6.74 4 4 0 0 1-4.77 4.78 4 4 0 0 1-6.75 0 4 4 0 0 1-4.78-4.77 4 4 0 0 1 0-6.76Z"/>
    <path d="m9 12 2 2 4-4"/>
  </symbol>
  <symbol id="like"
    xmlns="http://www.w3.org/2000/svg" viewBox="0 0 24 24" stroke-width="2" stroke-linecap="round" stroke-linejoin="round" class="lucide lucide-heart">
    <path d="M19 14c1.49-1.46 3-3.21 3-5.5A5.5 5.5 0 0 0 16.5 3c-1.76 0-3 .5-4.5 2-1.5-1.5-2.74-2-4.5-2A5.5 5.5 0 0 0 2 8.5c0 2.3 1.5 4.05 3 5.5l7 7Z"/>
  </symbol>
  <symbol id="like" width="29" height="29">
    <g fill-rule="evenodd">
      <path d="M13.74 1l.76 2.97.76-2.97zM18.63 2.22l-1.43-.47-.4 3.03zM11.79 1.75l-1.43.47 1.84 2.56zM24.47 14.3L21.45 9c-.29-.43-.69-.7-1.12-.78a1.16 1.16 0 0 0-.91.22c-.3.23-.48.52-.54.84l.05.07 2.85 5c1.95 3.56 1.32 6.97-1.85 10.14a8.46 8.46 0 0 1-.55.5 5.75 5.75 0 0 0 3.36-1.76c3.26-3.27 3.04-6.75 1.73-8.91M14.58 10.89c-.16-.83.1-1.57.7-2.15l-2.5-2.49c-.5-.5-1.38-.5-1.88 0-.18.18-.27.4-.33.63l4.01 4z"></path>
      <path d="M17.81 10.04a1.37 1.37 0 0 0-.88-.6.81.81 0 0 0-.64.15c-.18.13-.71.55-.24 1.56l1.43 3.03a.54.54 0 1 1-.87.61L9.2 7.38a.99.99 0 1 0-1.4 1.4l4.4 4.4a.54.54 0 1 1-.76.76l-4.4-4.4L5.8 8.3a.99.99 0 0 0-1.4 0 .98.98 0 0 0 0 1.39l1.25 1.24 4.4 4.4a.54.54 0 0 1 0 .76.54.54 0 0 1-.76 0l-4.4-4.4a1 1 0 0 0-1.4 0 .98.98 0 0 0 0 1.4l1.86 1.85 2.76 2.77a.54.54 0 0 1-.76.76L4.58 15.7a.98.98 0 0 0-1.4 0 .99.99 0 0 0 0 1.4l5.33 5.32c3.37 3.37 6.64 4.98 10.49 1.12 2.74-2.74 3.27-5.54 1.62-8.56l-2.8-4.94z"></path>
    </g>
  </symbol>

  <!-- <symbol id="views" xmlns="http://www.w3.org/2000/svg" viewBox="0 0 24 24" stroke-width="2">    <path d="M5 12s2.545-5 7-5c4.454 0 7 5 7 5s-2.546 5-7 5c-4.455 0-7-5-7-5z"/>
    <path d="M12 13a1 1 0 1 0 0-2 1 1 0 0 0 0 2z"/>
    <path d="M21 17v2a2 2 0 0 1-2 2H5a2 2 0 0 1-2-2v-2"/>
    <path d="M21 7V5a2 2 0 0 0-2-2H5a2 2 0 0 0-2 2v2"/>
  </symbol> -->
  <symbol xmlns="http://www.w3.org/2000/svg" id="views" width="24" height="24" viewBox="0 0 24 24" fill="none" stroke="currentColor" stroke-width="2" stroke-linecap="round" stroke-linejoin="round" class="lucide lucide-view">
    <path d="M5 12s2.545-5 7-5c4.454 0 7 5 7 5s-2.546 5-7 5c-4.455 0-7-5-7-5z"/>
    <path d="M12 13a1 1 0 1 0 0-2 1 1 0 0 0 0 2z"/>
    <path d="M21 17v2a2 2 0 0 1-2 2H5a2 2 0 0 1-2-2v-2"/>
    <path d="M21 7V5a2 2 0 0 0-2-2H5a2 2 0 0 0-2 2v2"/>
  </symbol>
  <symbol xmlns="http://www.w3.org/2000/svg" id="copy" width="24" height="24" viewBox="0 0 24 24" fill="none" stroke="currentColor" stroke-width="2" stroke-linecap="round" stroke-linejoin="round" class="lucide lucide-clipboard-copy">
    <rect width="8" height="4" x="8" y="2" rx="1" ry="1"/>
    <path d="M8 4H6a2 2 0 0 0-2 2v14a2 2 0 0 0 2 2h12a2 2 0 0 0 2-2v-2"/>
    <path d="M16 4h2a2 2 0 0 1 2 2v4"/>
    <path d="M21 14H11"/>
    <path d="m15 10-4 4 4 4"/>
  </symbol>
  <symbol xmlns="http://www.w3.org/2000/svg" id="fold" width="24" height="24" viewBox="0 0 24 24" fill="none" stroke="currentColor" stroke-width="2" stroke-linecap="round" stroke-linejoin="round" class="lucide lucide-arrow-down-from-line">
    <path d="M19 3H5"/>
    <path d="M12 21V7"/>
    <path d="m6 15 6 6 6-6"/>
  </symbol>
  <symbol xmlns="http://www.w3.org/2000/svg" id="golink" width="24" height="24" viewBox="0 0 24 24" fill="none" stroke="currentColor" stroke-width="2" stroke-linecap="round" stroke-linejoin="round" class="lucide lucide-land-plot">
    <path d="m12 8 6-3-6-3v10"/>
    <path d="m8 11.99-5.5 3.14a1 1 0 0 0 0 1.74l8.5 4.86a2 2 0 0 0 2 0l8.5-4.86a1 1 0 0 0 0-1.74L16 12"/>
    <path d="m6.49 12.85 11.02 6.3"/>
    <path d="M17.51 12.85 6.5 19.15"/>
  </symbol>
</svg>