<?xml version="1.0" encoding="UTF-8"?>
<!DOCTYPE svg PUBLIC "-//W3C//DTD SVG 1.1//EN" "http://www.w3.org/Graphics/SVG/1.1/DTD/svg11.dtd">
<!-- Creator: CorelDRAW 2018 (64-Bit) -->
<svg xmlns="http://www.w3.org/2000/svg" xml:space="preserve" width="17.7735mm" height="17.7735mm" version="1.1" style="shape-rendering:geometricPrecision; text-rendering:geometricPrecision; image-rendering:optimizeQuality; fill-rule:evenodd; clip-rule:evenodd"
viewBox="0 0 2318 2318"
 xmlns:xlink="http://www.w3.org/1999/xlink">
 <defs>
  <style type="text/css">
   <![CDATA[
    .str0 {stroke:#F58634;stroke-width:9.94;stroke-miterlimit:22.9256}
    .fil1 {fill:none}
    .fil3 {fill:#FEFEFE}
    .fil0 {fill:#F58634}
    .fil2 {fill:#FEFEFE;fill-rule:nonzero}
   ]]>
  </style>
   <clipPath id="id0">
    <path d="M-0 0l2318 0 0 2318 -2318 0 0 -2318z"/>
   </clipPath>
   <clipPath id="id1">
    <path d="M-0 0l2318 0 0 2318 -2318 0 0 -2318z"/>
   </clipPath>
 </defs>
 <g id="图层_x0020_1">
  <metadata id="CorelCorpID_0Corel-Layer"/>
  <polygon class="fil0" points="-0,0 2318,0 2318,2318 -0,2318 "/>
  <g style="clip-path:url(#id0)">
  </g>
  <polygon id="1" class="fil1" points="-0,0 2318,0 2318,2318 -0,2318 "/>
  <g style="clip-path:url(#id1)">
   <path id="2" class="fil1 str0" d="M-0 0l2318 2318m0 -2318l-2318 2318"/>
  </g>
  <g id="_2194600869824">
   <g>
    <polygon class="fil2" points="2211.96,629.55 2318,590.19 2318,720.3 2216.98,751.76 2176.52,642.7 "/>
    <polygon class="fil3" points="2225.12,664.88 2318,630.39 2318,680.76 2240.01,705.03 "/>
    <polygon class="fil2" points="2280.53,1021.27 2318,1025.04 2318,1145.99 2231,1133.69 2243.23,1017.53 "/>
    <polygon class="fil3" points="2276.84,1058.82 2318,1062.95 2318,1107.87 2272.36,1101.41 "/>
    <polygon class="fil2" points="2204.49,1328.15 2318,1380.16 2318,1526.36 2119.32,1415.89 2171.57,1313.07 "/>
    <polygon class="fil3" points="2188.82,1362.44 2318,1421.62 2318,1483.27 2169.43,1400.61 "/>
   </g>
   <polygon class="fil2" points="1994.08,324.63 2307.58,9.06 2318,7.99 2318,105.63 2156.6,268.1 2318,163.4 2318,253.31 2046.18,429.64 1967.47,351.4 "/>
   <polygon class="fil3" points="2020.83,351.23 2318,52.1 2318,208.34 2051.2,381.42 "/>
   <path class="fil2" d="M1685.91 145.13l56.3 -145.13 241.5 0 -213.1 218.41 -98.32 -38.16 13.63 -35.12zm109.25 -73.07l-8.45 21.79 21.7 -22.24 -13.25 0.44z"/>
   <polygon class="fil3" points="1721.09,158.73 1769,35.23 1901.04,30.7 1761.01,174.23 "/>
   <polygon class="fil2" points="936.7,249.31 712.54,0 866.78,0 936.93,0 1053.29,215.7 957.25,272.18 "/>
   <polygon class="fil3" points="964.77,224.03 778.05,16.35 912.5,50.72 1001.7,202.32 "/>
   <polygon class="fil2" points="595.3,662.8 -0,403.1 -0,320.78 351.24,474.01 -0,272.43 -0,185.27 675.61,572.98 629.9,677.89 "/>
   <polygon class="fil3" points="610.37,628.22 -0,361.94 -0,228.85 627.48,588.95 "/>
   <polygon class="fil2" points="543.48,1030.84 -0,1085.99 -0,1010.13 142.25,995.71 -0,998.41 -0,923.01 576,912.07 578.13,1027.34 "/>
   <polygon class="fil3" points="539.79,993.3 -0,1048.06 -0,960.71 539,950.47 "/>
   <polygon class="fil2" points="623.22,1340.09 -0,1653.83 -0,1569.32 215.26,1460.95 -0,1549.09 -0,1467.58 610.57,1217.59 654.31,1324.44 "/>
   <polygon class="fil3" points="606.23,1306.39 -0,1611.56 -0,1508.33 590,1266.76 "/>
   <polygon class="fil2" points="836.34,1628.35 171.27,2318 -0,2318 -0,2302.85 777.74,1519.5 862.51,1601.22 "/>
   <polygon class="fil3" points="809.15,1602.18 118.82,2318 38.11,2318 778.31,1572.46 "/>
  </g>
  <path class="fil3" d="M1021.75 1638.68l164.31 16.38 172.07 -411.82c-9.13,4.5 -20.62,6.13 -34.51,5.65 -105.04,-0.72 -188.68,-31.74 -251.2,-93.35 -57.79,-57.15 -87.05,-136.72 -87.51,-238.46 -0.61,-139.59 45.49,-256.39 138.61,-350.97 82.54,-83.83 180.9,-126.99 295.07,-129.7 102.38,-2.45 187.5,30.69 254.47,99.44 61.36,62.43 94.33,177.62 98.32,345.31l-260.79 15.61c-6.56,-155.02 -42.61,-232.02 -108.4,-230.44 -46.02,1.1 -81.58,33.61 -106.68,97.02 -18.38,47.69 -27.31,96.51 -27.09,146.96 0.13,30.35 8.8,55.91 26.31,76.44 17.52,22.68 42.35,34.14 74.5,34.47 35.7,-4.07 74.23,-33.19 115.58,-87.86l233.71 71.74 -252.93 677.81 -195.67 -19.5 369.35 36.82 300.51 -347.81c360.15,-398.66 123.99,-1100.87 -472.53,-1158.45 -571.44,-55.15 -958.87,559.5 -679.26,1049.79 21.25,37.26 36.92,63.49 56.77,101.06 17.61,33.35 39.27,58.32 60.53,97.88 27.73,51.65 65.55,168.36 116.46,195.98z"/>
  <path class="fil3" d="M1132.91 2166.1c-0.16,103.79 12.06,122.14 121.11,133.9 122.15,13.2 131.34,5.06 159.79,-104.6 95.61,-2.26 150.57,-49.87 169.92,-151.25l-587.13 -60.46c-4.54,100.85 42.56,161.82 136.31,182.4z"/>
  <path class="fil3" d="M1071.55 1886.28c145.63,14.71 469.72,69.72 550.42,33.04l16.3 -85.31c-51.75,-36.35 -34.04,-37.18 -120.16,-45.88l-432.21 -43.72c-135.53,-13.64 -148.17,128.33 -14.36,141.87z"/>
  <path class="fil2" d="M2008.78 1606.23l309.22 361.22 0 195.68c-141.04,-169.7 -282.08,-339.39 -423.18,-509.03l89.4 -76.56 24.56 28.68z"/>
  <polygon class="fil3" points="1980.1,1630.76 2318,2025.49 2318,2104.3 1947.57,1658.62 "/>
 </g>
</svg>
